<svg width="213" height="154" viewBox="0 0 213 154" fill="none" xmlns="http://www.w3.org/2000/svg">
<path d="M104.844 14.1305V0L53.5 17.3914V52.1742L104.844 42.6633V28.261L63.3557 38.7267C61.9962 39.0696 60.6771 38.0419 60.6771 36.6399V28.5419C60.6771 27.2519 61.5378 26.1205 62.781 25.7763L104.844 14.1305Z" fill="white"/>
<path d="M104.844 70.924V56.7935L53.5 64.6739V100L104.844 99.4567V85.0545L62.9351 87.1173C61.7064 87.1777 60.6771 86.1979 60.6771 84.9677V77.8728C60.6771 76.3968 61.7967 75.1616 63.2655 75.017L104.844 70.924Z" fill="white"/>
<path d="M108.156 70.924V56.7935L159.5 64.6739V100L108.156 99.4567V85.0545L150.065 87.1173C151.294 87.1777 152.323 86.1979 152.323 84.9677V77.8728C152.323 76.3968 151.203 75.1616 149.734 75.017L108.156 70.924Z" fill="white"/>
<path d="M108.156 42.9352V28.8047L159.5 40.4895V70.381L108.156 65.4897V56.5222L149.856 62.6798C151.156 62.8717 152.323 61.8645 152.323 60.5507V53.4758C152.323 52.0919 151.335 50.9051 149.974 50.6539L108.156 42.9352Z" fill="white"/>
<path d="M108.156 14.1305V0L159.5 17.3914V52.1742L108.156 42.6633V28.261L149.644 38.7267C151.004 39.0696 152.323 38.0419 152.323 36.6399V28.5419C152.323 27.2519 151.462 26.1205 150.219 25.7763L108.156 14.1305Z" fill="white"/>
<path d="M0.509844 127.96V127.4H4.70984L7.53784 138.628L11.5138 127.4H14.1178L18.0378 138.432L20.9218 127.4H24.8978V127.96L19.9138 147.084H17.0858L12.7458 134.904L8.23784 147.084H5.32584L0.509844 127.96ZM27.4281 127.4H38.6001V131.04H31.7401V134.932H37.3681V138.488H31.7401V143.36H38.8801V147H27.4281V127.4ZM41.9477 127.4H53.1197V131.04H46.2597V134.932H51.8877V138.488H46.2597V143.36H53.3997V147H41.9477V127.4ZM61.9272 147.224C60.9939 147.224 60.1632 147.131 59.4352 146.944C58.7259 146.739 58.0912 146.477 57.5312 146.16C56.9899 145.843 56.5232 145.479 56.1312 145.068C55.7579 144.657 55.4499 144.237 55.2072 143.808L58.1472 141.008C58.3152 141.307 58.5205 141.605 58.7632 141.904C59.0059 142.203 59.2859 142.473 59.6032 142.716C59.9392 142.94 60.3032 143.127 60.6952 143.276C61.1059 143.407 61.5632 143.472 62.0672 143.472C62.8885 143.472 63.5232 143.285 63.9712 142.912C64.4379 142.539 64.6712 142.035 64.6712 141.4C64.6712 140.784 64.4565 140.289 64.0272 139.916C63.5979 139.524 63.0659 139.188 62.4312 138.908C61.7965 138.609 61.0965 138.32 60.3312 138.04C59.5845 137.741 58.8939 137.377 58.2592 136.948C57.6245 136.5 57.0925 135.949 56.6632 135.296C56.2339 134.624 56.0192 133.756 56.0192 132.692C56.0192 131.796 56.1779 131.003 56.4952 130.312C56.8125 129.621 57.2605 129.043 57.8392 128.576C58.4179 128.091 59.0992 127.727 59.8832 127.484C60.6859 127.241 61.5632 127.12 62.5152 127.12C63.3739 127.12 64.1299 127.213 64.7832 127.4C65.4365 127.587 66.0059 127.829 66.4912 128.128C66.9765 128.408 67.3779 128.725 67.6952 129.08C68.0125 129.416 68.2645 129.743 68.4512 130.06L65.6792 132.608C65.2872 132.067 64.8392 131.647 64.3352 131.348C63.8312 131.031 63.2339 130.872 62.5432 130.872C61.9085 130.872 61.3952 131.012 61.0032 131.292C60.6112 131.553 60.4152 131.955 60.4152 132.496C60.4152 133.056 60.6299 133.504 61.0592 133.84C61.4885 134.157 62.0299 134.447 62.6832 134.708C63.3365 134.951 64.0365 135.203 64.7832 135.464C65.5485 135.725 66.2579 136.08 66.9112 136.528C67.5645 136.976 68.1059 137.555 68.5352 138.264C68.9645 138.955 69.1792 139.86 69.1792 140.98C69.1792 141.988 69.0019 142.884 68.6472 143.668C68.2925 144.433 67.7979 145.087 67.1632 145.628C66.5285 146.151 65.7632 146.552 64.8672 146.832C63.9712 147.093 62.9912 147.224 61.9272 147.224ZM71.9711 147V127.4H78.8031C80.4831 127.4 81.9671 127.633 83.2551 128.1C84.5431 128.567 85.6258 129.22 86.5031 130.06C87.3991 130.9 88.0711 131.917 88.5191 133.112C88.9671 134.288 89.1911 135.604 89.1911 137.06C89.1911 138.777 88.9018 140.261 88.3231 141.512C87.7631 142.744 86.9884 143.771 85.9991 144.592C85.0284 145.413 83.8898 146.02 82.5831 146.412C81.2764 146.804 79.8858 147 78.4111 147H71.9711ZM77.9911 143.36C80.1004 143.36 81.7338 142.847 82.8911 141.82C84.0671 140.793 84.6551 139.225 84.6551 137.116C84.6551 136.071 84.4964 135.165 84.1791 134.4C83.8618 133.635 83.4138 133.009 82.8351 132.524C82.2564 132.02 81.5658 131.647 80.7631 131.404C79.9604 131.161 79.0738 131.04 78.1031 131.04H76.2831V143.36H77.9911ZM101.529 143.584C102.387 143.584 103.181 143.444 103.909 143.164C104.637 142.865 105.262 142.445 105.785 141.904C106.326 141.344 106.746 140.672 107.045 139.888C107.362 139.085 107.521 138.18 107.521 137.172C107.521 136.183 107.371 135.296 107.073 134.512C106.774 133.709 106.354 133.037 105.813 132.496C105.29 131.936 104.665 131.507 103.937 131.208C103.209 130.909 102.406 130.76 101.529 130.76C100.651 130.76 99.8488 130.909 99.1208 131.208C98.3928 131.488 97.7581 131.908 97.2168 132.468C96.6941 133.009 96.2835 133.681 95.9848 134.484C95.6861 135.268 95.5368 136.164 95.5368 137.172C95.5368 138.161 95.6768 139.057 95.9568 139.86C96.2555 140.644 96.6661 141.316 97.1888 141.876C97.7301 142.417 98.3648 142.837 99.0928 143.136C99.8395 143.435 100.651 143.584 101.529 143.584ZM101.529 147.224C99.9235 147.224 98.4768 146.981 97.1888 146.496C95.9195 146.011 94.8275 145.329 93.9128 144.452C92.9981 143.556 92.2981 142.492 91.8128 141.26C91.3275 140.028 91.0848 138.665 91.0848 137.172C91.0848 135.753 91.3275 134.437 91.8128 133.224C92.2981 131.992 92.9888 130.928 93.8848 130.032C94.7995 129.117 95.9008 128.408 97.1888 127.904C98.4768 127.381 99.9235 127.12 101.529 127.12C103.078 127.12 104.497 127.363 105.785 127.848C107.073 128.333 108.174 129.024 109.089 129.92C110.003 130.797 110.713 131.861 111.217 133.112C111.721 134.344 111.973 135.707 111.973 137.2C111.973 138.619 111.721 139.944 111.217 141.176C110.731 142.389 110.031 143.444 109.117 144.34C108.221 145.236 107.129 145.945 105.841 146.468C104.553 146.972 103.115 147.224 101.529 147.224ZM116.248 127.4H119.888L125.068 139.888L130.024 127.4H133.636L136.38 147H132.208L130.584 135.296L125.852 147H124.144L119.3 135.408L117.816 147H113.784L116.248 127.4ZM139.592 127.4H150.764V131.04H143.904V134.932H149.532V138.488H143.904V143.36H151.044V147H139.592V127.4ZM154.632 147.2C154.125 147.2 153.738 147.053 153.472 146.76C153.205 146.467 153.072 146.107 153.072 145.68C153.072 145.24 153.198 144.873 153.452 144.58C153.718 144.273 154.112 144.12 154.632 144.12C155.138 144.12 155.532 144.273 155.812 144.58C156.092 144.873 156.232 145.24 156.232 145.68C156.232 146.107 156.092 146.467 155.812 146.76C155.532 147.053 155.138 147.2 154.632 147.2ZM161.735 147.14C161.188 147.14 160.655 147.027 160.135 146.8C159.628 146.56 159.175 146.233 158.775 145.82C158.375 145.393 158.055 144.887 157.815 144.3C157.575 143.713 157.455 143.067 157.455 142.36C157.455 141.653 157.575 141.013 157.815 140.44C158.055 139.853 158.368 139.353 158.755 138.94C159.155 138.513 159.608 138.187 160.115 137.96C160.635 137.72 161.175 137.6 161.735 137.6C162.375 137.6 162.955 137.72 163.475 137.96C163.995 138.187 164.415 138.493 164.735 138.88V137.76H167.395V147.02C167.395 147.847 167.261 148.567 166.995 149.18C166.741 149.793 166.381 150.307 165.915 150.72C165.461 151.133 164.921 151.44 164.295 151.64C163.668 151.853 162.995 151.96 162.275 151.96C161.395 151.96 160.575 151.807 159.815 151.5C159.055 151.193 158.441 150.74 157.975 150.14L159.395 148.26C159.808 148.647 160.215 148.953 160.615 149.18C161.015 149.42 161.515 149.54 162.115 149.54C162.968 149.54 163.588 149.3 163.975 148.82C164.375 148.353 164.575 147.68 164.575 146.8V146.02C164.228 146.367 163.808 146.64 163.315 146.84C162.821 147.04 162.295 147.14 161.735 147.14ZM162.555 144.76C163.128 144.76 163.601 144.553 163.975 144.14C164.361 143.727 164.561 143.147 164.575 142.4V142.26C164.575 141.58 164.381 141.04 163.995 140.64C163.621 140.24 163.135 140.04 162.535 140.04C162.268 140.04 162.008 140.087 161.755 140.18C161.501 140.273 161.275 140.42 161.075 140.62C160.888 140.807 160.735 141.047 160.615 141.34C160.508 141.633 160.455 141.98 160.455 142.38C160.455 143.127 160.655 143.713 161.055 144.14C161.455 144.553 161.955 144.76 162.555 144.76ZM169.557 133H172.377V147H169.557V133ZM179.117 147.14C178.37 147.14 177.684 147.027 177.057 146.8C176.43 146.573 175.89 146.253 175.437 145.84C174.984 145.413 174.63 144.913 174.377 144.34C174.137 143.753 174.017 143.1 174.017 142.38C174.017 141.647 174.144 140.987 174.397 140.4C174.664 139.8 175.024 139.293 175.477 138.88C175.93 138.467 176.464 138.153 177.077 137.94C177.704 137.713 178.384 137.6 179.117 137.6C179.864 137.6 180.55 137.713 181.177 137.94C181.804 138.167 182.337 138.493 182.777 138.92C183.23 139.333 183.577 139.833 183.817 140.42C184.07 141.007 184.197 141.66 184.197 142.38C184.197 143.113 184.064 143.773 183.797 144.36C183.544 144.947 183.19 145.447 182.737 145.86C182.284 146.273 181.744 146.593 181.117 146.82C180.504 147.033 179.837 147.14 179.117 147.14ZM179.117 144.78C179.797 144.78 180.317 144.553 180.677 144.1C181.037 143.647 181.217 143.073 181.217 142.38C181.217 141.7 181.037 141.133 180.677 140.68C180.33 140.213 179.81 139.98 179.117 139.98C178.424 139.98 177.897 140.213 177.537 140.68C177.177 141.133 176.997 141.7 176.997 142.38C176.997 142.7 177.037 143.007 177.117 143.3C177.21 143.593 177.344 143.853 177.517 144.08C177.704 144.293 177.93 144.467 178.197 144.6C178.464 144.72 178.77 144.78 179.117 144.78ZM185.846 147V133H188.666V138.7C188.986 138.367 189.392 138.1 189.886 137.9C190.379 137.7 190.919 137.6 191.506 137.6C192.066 137.6 192.599 137.72 193.106 137.96C193.626 138.187 194.079 138.513 194.466 138.94C194.866 139.353 195.186 139.853 195.426 140.44C195.666 141.013 195.786 141.653 195.786 142.36C195.786 143.067 195.666 143.713 195.426 144.3C195.186 144.887 194.866 145.393 194.466 145.82C194.066 146.233 193.606 146.56 193.086 146.8C192.579 147.027 192.052 147.14 191.506 147.14C190.879 147.14 190.306 147.02 189.786 146.78C189.279 146.54 188.852 146.227 188.506 145.84V147H185.846ZM190.706 140.04C190.119 140.04 189.639 140.233 189.266 140.62C188.892 141.007 188.692 141.52 188.666 142.16V142.52C188.692 143.227 188.892 143.78 189.266 144.18C189.652 144.567 190.126 144.76 190.686 144.76C191.286 144.76 191.786 144.553 192.186 144.14C192.586 143.713 192.786 143.127 192.786 142.38C192.786 141.98 192.726 141.633 192.606 141.34C192.499 141.047 192.346 140.807 192.146 140.62C191.959 140.42 191.739 140.273 191.486 140.18C191.232 140.087 190.972 140.04 190.706 140.04ZM201.188 147.14C200.641 147.14 200.108 147.027 199.588 146.8C199.081 146.56 198.628 146.233 198.228 145.82C197.828 145.393 197.508 144.887 197.268 144.3C197.028 143.713 196.908 143.067 196.908 142.36C196.908 141.653 197.028 141.013 197.268 140.44C197.508 139.853 197.821 139.353 198.208 138.94C198.608 138.513 199.061 138.187 199.568 137.96C200.088 137.72 200.628 137.6 201.188 137.6C201.828 137.6 202.408 137.72 202.928 137.96C203.448 138.187 203.868 138.493 204.188 138.88V137.76H206.848V147H204.188V145.84C203.841 146.227 203.408 146.54 202.888 146.78C202.368 147.02 201.801 147.14 201.188 147.14ZM202.008 144.76C202.581 144.76 203.054 144.553 203.428 144.14C203.814 143.727 204.014 143.147 204.028 142.4V142.16C204.001 141.52 203.794 141.007 203.408 140.62C203.034 140.233 202.561 140.04 201.988 140.04C201.721 140.04 201.461 140.087 201.208 140.18C200.954 140.273 200.728 140.42 200.528 140.62C200.341 140.807 200.188 141.047 200.068 141.34C199.961 141.633 199.908 141.98 199.908 142.38C199.908 143.127 200.108 143.713 200.508 144.14C200.908 144.553 201.408 144.76 202.008 144.76ZM209.01 133H211.83V147H209.01V133Z" fill="white"/>
</svg>
