<svg width="131" height="34" viewBox="0 0 131 34" fill="none" xmlns="http://www.w3.org/2000/svg">
<path d="M44.24 6.12V5.8H46.64L48.256 12.216L50.528 5.8H52.016L54.256 12.104L55.904 5.8H58.176V6.12L55.328 17.048H53.712L51.232 10.088L48.656 17.048H46.992L44.24 6.12ZM59.6219 5.8H66.0059V7.88H62.0859V10.104H65.3019V12.136H62.0859V14.92H66.1659V17H59.6219V5.8ZM67.9188 5.8H74.3028V7.88H70.3828V10.104H73.5988V12.136H70.3828V14.92H74.4628V17H67.9188V5.8ZM79.3356 17.128C78.8023 17.128 78.3276 17.0747 77.9116 16.968C77.5063 16.8507 77.1436 16.7013 76.8236 16.52C76.5143 16.3387 76.2476 16.1307 76.0236 15.896C75.8103 15.6613 75.6343 15.4213 75.4956 15.176L77.1756 13.576C77.2716 13.7467 77.389 13.9173 77.5276 14.088C77.6663 14.2587 77.8263 14.4133 78.0076 14.552C78.1996 14.68 78.4076 14.7867 78.6316 14.872C78.8663 14.9467 79.1276 14.984 79.4156 14.984C79.885 14.984 80.2476 14.8773 80.5036 14.664C80.7703 14.4507 80.9036 14.1627 80.9036 13.8C80.9036 13.448 80.781 13.1653 80.5356 12.952C80.2903 12.728 79.9863 12.536 79.6236 12.376C79.261 12.2053 78.861 12.04 78.4236 11.88C77.997 11.7093 77.6023 11.5013 77.2396 11.256C76.877 11 76.573 10.6853 76.3276 10.312C76.0823 9.928 75.9596 9.432 75.9596 8.824C75.9596 8.312 76.0503 7.85867 76.2316 7.464C76.413 7.06933 76.669 6.73867 76.9996 6.472C77.3303 6.19467 77.7196 5.98667 78.1676 5.848C78.6263 5.70933 79.1276 5.64 79.6716 5.64C80.1623 5.64 80.5943 5.69333 80.9676 5.8C81.341 5.90667 81.6663 6.04533 81.9436 6.216C82.221 6.376 82.4503 6.55733 82.6316 6.76C82.813 6.952 82.957 7.13867 83.0636 7.32L81.4796 8.776C81.2556 8.46667 80.9996 8.22667 80.7116 8.056C80.4236 7.87467 80.0823 7.784 79.6876 7.784C79.325 7.784 79.0316 7.864 78.8076 8.024C78.5836 8.17333 78.4716 8.40267 78.4716 8.712C78.4716 9.032 78.5943 9.288 78.8396 9.48C79.085 9.66133 79.3943 9.82667 79.7676 9.976C80.141 10.1147 80.541 10.2587 80.9676 10.408C81.405 10.5573 81.8103 10.76 82.1836 11.016C82.557 11.272 82.8663 11.6027 83.1116 12.008C83.357 12.4027 83.4796 12.92 83.4796 13.56C83.4796 14.136 83.3783 14.648 83.1756 15.096C82.973 15.5333 82.6903 15.9067 82.3276 16.216C81.965 16.5147 81.5276 16.744 81.0156 16.904C80.5036 17.0533 79.9436 17.128 79.3356 17.128ZM85.075 17V5.8H88.979C89.939 5.8 90.787 5.93333 91.523 6.2C92.259 6.46667 92.8777 6.84 93.379 7.32C93.891 7.8 94.275 8.38133 94.531 9.064C94.787 9.736 94.915 10.488 94.915 11.32C94.915 12.3013 94.7497 13.1493 94.419 13.864C94.099 14.568 93.6563 15.1547 93.091 15.624C92.5363 16.0933 91.8857 16.44 91.139 16.664C90.3923 16.888 89.5977 17 88.755 17H85.075ZM88.515 14.92C89.7203 14.92 90.6537 14.6267 91.315 14.04C91.987 13.4533 92.323 12.5573 92.323 11.352C92.323 10.7547 92.2323 10.2373 92.051 9.8C91.8697 9.36267 91.6137 9.00533 91.283 8.728C90.9523 8.44 90.5577 8.22667 90.099 8.088C89.6403 7.94933 89.1337 7.88 88.579 7.88H87.539V14.92H88.515ZM101.965 15.048C102.456 15.048 102.909 14.968 103.325 14.808C103.741 14.6373 104.098 14.3973 104.397 14.088C104.706 13.768 104.946 13.384 105.117 12.936C105.298 12.4773 105.389 11.96 105.389 11.384C105.389 10.8187 105.304 10.312 105.133 9.864C104.962 9.40533 104.722 9.02133 104.413 8.712C104.114 8.392 103.757 8.14667 103.341 7.976C102.925 7.80533 102.466 7.72 101.965 7.72C101.464 7.72 101.005 7.80533 100.589 7.976C100.173 8.136 99.8105 8.376 99.5011 8.696C99.2025 9.00533 98.9678 9.38933 98.7971 9.848C98.6265 10.296 98.5411 10.808 98.5411 11.384C98.5411 11.9493 98.6211 12.4613 98.7811 12.92C98.9518 13.368 99.1865 13.752 99.4851 14.072C99.7945 14.3813 100.157 14.6213 100.573 14.792C101 14.9627 101.464 15.048 101.965 15.048ZM101.965 17.128C101.048 17.128 100.221 16.9893 99.4851 16.712C98.7598 16.4347 98.1358 16.0453 97.6131 15.544C97.0905 15.032 96.6905 14.424 96.4131 13.72C96.1358 13.016 95.9971 12.2373 95.9971 11.384C95.9971 10.5733 96.1358 9.82133 96.4131 9.128C96.6905 8.424 97.0851 7.816 97.5971 7.304C98.1198 6.78133 98.7491 6.376 99.4851 6.088C100.221 5.78933 101.048 5.64 101.965 5.64C102.85 5.64 103.661 5.77867 104.397 6.056C105.133 6.33333 105.762 6.728 106.285 7.24C106.808 7.74133 107.213 8.34933 107.501 9.064C107.789 9.768 107.933 10.5467 107.933 11.4C107.933 12.2107 107.789 12.968 107.501 13.672C107.224 14.3653 106.824 14.968 106.301 15.48C105.789 15.992 105.165 16.3973 104.429 16.696C103.693 16.984 102.872 17.128 101.965 17.128ZM110.376 5.8H112.456L115.416 12.936L118.248 5.8H120.312L121.88 17H119.496L118.568 10.312L115.864 17H114.888L112.12 10.376L111.272 17H108.968L110.376 5.8ZM123.716 5.8H130.1V7.88H126.18V10.104H129.396V12.136H126.18V14.92H130.26V17H123.716V5.8ZM45.572 31.12C45.268 31.12 45.036 31.032 44.876 30.856C44.716 30.68 44.636 30.464 44.636 30.208C44.636 29.944 44.712 29.724 44.864 29.548C45.024 29.364 45.26 29.272 45.572 29.272C45.876 29.272 46.112 29.364 46.28 29.548C46.448 29.724 46.532 29.944 46.532 30.208C46.532 30.464 46.448 30.68 46.28 30.856C46.112 31.032 45.876 31.12 45.572 31.12ZM49.8337 31.084C49.5057 31.084 49.1857 31.016 48.8737 30.88C48.5697 30.736 48.2977 30.54 48.0577 30.292C47.8177 30.036 47.6257 29.732 47.4817 29.38C47.3377 29.028 47.2657 28.64 47.2657 28.216C47.2657 27.792 47.3377 27.408 47.4817 27.064C47.6257 26.712 47.8137 26.412 48.0457 26.164C48.2857 25.908 48.5577 25.712 48.8617 25.576C49.1737 25.432 49.4977 25.36 49.8337 25.36C50.2177 25.36 50.5657 25.432 50.8777 25.576C51.1897 25.712 51.4417 25.896 51.6337 26.128V25.456H53.2297V31.012C53.2297 31.508 53.1497 31.94 52.9897 32.308C52.8377 32.676 52.6217 32.984 52.3417 33.232C52.0697 33.48 51.7457 33.664 51.3697 33.784C50.9937 33.912 50.5897 33.976 50.1577 33.976C49.6297 33.976 49.1377 33.884 48.6817 33.7C48.2257 33.516 47.8577 33.244 47.5777 32.884L48.4297 31.756C48.6777 31.988 48.9217 32.172 49.1617 32.308C49.4017 32.452 49.7017 32.524 50.0617 32.524C50.5737 32.524 50.9457 32.38 51.1777 32.092C51.4177 31.812 51.5377 31.408 51.5377 30.88V30.412C51.3297 30.62 51.0777 30.784 50.7817 30.904C50.4857 31.024 50.1697 31.084 49.8337 31.084ZM50.3257 29.656C50.6697 29.656 50.9537 29.532 51.1777 29.284C51.4097 29.036 51.5297 28.688 51.5377 28.24V28.156C51.5377 27.748 51.4217 27.424 51.1897 27.184C50.9657 26.944 50.6737 26.824 50.3137 26.824C50.1537 26.824 49.9977 26.852 49.8457 26.908C49.6937 26.964 49.5577 27.052 49.4377 27.172C49.3257 27.284 49.2337 27.428 49.1617 27.604C49.0977 27.78 49.0657 27.988 49.0657 28.228C49.0657 28.676 49.1857 29.028 49.4257 29.284C49.6657 29.532 49.9657 29.656 50.3257 29.656ZM54.5269 22.6H56.2189V31H54.5269V22.6ZM60.2632 31.084C59.8152 31.084 59.4032 31.016 59.0272 30.88C58.6512 30.744 58.3272 30.552 58.0552 30.304C57.7832 30.048 57.5712 29.748 57.4192 29.404C57.2752 29.052 57.2032 28.66 57.2032 28.228C57.2032 27.788 57.2792 27.392 57.4312 27.04C57.5912 26.68 57.8072 26.376 58.0792 26.128C58.3512 25.88 58.6712 25.692 59.0392 25.564C59.4152 25.428 59.8232 25.36 60.2632 25.36C60.7112 25.36 61.1232 25.428 61.4992 25.564C61.8752 25.7 62.1952 25.896 62.4592 26.152C62.7312 26.4 62.9392 26.7 63.0832 27.052C63.2352 27.404 63.3112 27.796 63.3112 28.228C63.3112 28.668 63.2312 29.064 63.0712 29.416C62.9192 29.768 62.7072 30.068 62.4352 30.316C62.1632 30.564 61.8392 30.756 61.4632 30.892C61.0952 31.02 60.6952 31.084 60.2632 31.084ZM60.2632 29.668C60.6712 29.668 60.9832 29.532 61.1992 29.26C61.4152 28.988 61.5232 28.644 61.5232 28.228C61.5232 27.82 61.4152 27.48 61.1992 27.208C60.9912 26.928 60.6792 26.788 60.2632 26.788C59.8472 26.788 59.5312 26.928 59.3152 27.208C59.0992 27.48 58.9912 27.82 58.9912 28.228C58.9912 28.42 59.0152 28.604 59.0632 28.78C59.1192 28.956 59.1992 29.112 59.3032 29.248C59.4152 29.376 59.5512 29.48 59.7112 29.56C59.8712 29.632 60.0552 29.668 60.2632 29.668ZM64.3003 31V22.6H65.9923V26.02C66.1843 25.82 66.4283 25.66 66.7243 25.54C67.0203 25.42 67.3443 25.36 67.6963 25.36C68.0323 25.36 68.3523 25.432 68.6563 25.576C68.9683 25.712 69.2403 25.908 69.4723 26.164C69.7123 26.412 69.9043 26.712 70.0483 27.064C70.1923 27.408 70.2643 27.792 70.2643 28.216C70.2643 28.64 70.1923 29.028 70.0483 29.38C69.9043 29.732 69.7123 30.036 69.4723 30.292C69.2323 30.54 68.9563 30.736 68.6443 30.88C68.3403 31.016 68.0243 31.084 67.6963 31.084C67.3203 31.084 66.9763 31.012 66.6643 30.868C66.3603 30.724 66.1043 30.536 65.8963 30.304V31H64.3003ZM67.2163 26.824C66.8643 26.824 66.5763 26.94 66.3523 27.172C66.1283 27.404 66.0083 27.712 65.9923 28.096V28.312C66.0083 28.736 66.1283 29.068 66.3523 29.308C66.5843 29.54 66.8683 29.656 67.2043 29.656C67.5643 29.656 67.8643 29.532 68.1043 29.284C68.3443 29.028 68.4643 28.676 68.4643 28.228C68.4643 27.988 68.4283 27.78 68.3563 27.604C68.2923 27.428 68.2003 27.284 68.0803 27.172C67.9683 27.052 67.8363 26.964 67.6843 26.908C67.5323 26.852 67.3763 26.824 67.2163 26.824ZM73.5056 31.084C73.1776 31.084 72.8576 31.016 72.5456 30.88C72.2416 30.736 71.9696 30.54 71.7296 30.292C71.4896 30.036 71.2976 29.732 71.1536 29.38C71.0096 29.028 70.9376 28.64 70.9376 28.216C70.9376 27.792 71.0096 27.408 71.1536 27.064C71.2976 26.712 71.4856 26.412 71.7176 26.164C71.9576 25.908 72.2296 25.712 72.5336 25.576C72.8456 25.432 73.1696 25.36 73.5056 25.36C73.8896 25.36 74.2376 25.432 74.5496 25.576C74.8616 25.712 75.1136 25.896 75.3056 26.128V25.456H76.9016V31H75.3056V30.304C75.0976 30.536 74.8376 30.724 74.5256 30.868C74.2136 31.012 73.8736 31.084 73.5056 31.084ZM73.9976 29.656C74.3416 29.656 74.6256 29.532 74.8496 29.284C75.0816 29.036 75.2016 28.688 75.2096 28.24V28.096C75.1936 27.712 75.0696 27.404 74.8376 27.172C74.6136 26.94 74.3296 26.824 73.9856 26.824C73.8256 26.824 73.6696 26.852 73.5176 26.908C73.3656 26.964 73.2296 27.052 73.1096 27.172C72.9976 27.284 72.9056 27.428 72.8336 27.604C72.7696 27.78 72.7376 27.988 72.7376 28.228C72.7376 28.676 72.8576 29.028 73.0976 29.284C73.3376 29.532 73.6376 29.656 73.9976 29.656ZM78.1988 22.6H79.8908V31H78.1988V22.6Z" fill="white"/>
<path d="M16.6793 4.66304V0L0 5.73913V17.2174L16.6793 14.0788V9.32609L3.00312 12.8306C2.66278 12.9178 2.33152 12.6608 2.33152 12.3094V9.24183C2.33152 8.92043 2.54529 8.63825 2.85468 8.55123L16.6793 4.66304Z" fill="white"/>
<path d="M16.6793 23.4049V18.7418L0 21.3424V33L16.6793 32.8207V28.0679L2.89643 28.7571C2.58911 28.7724 2.33152 28.5274 2.33152 28.2197V25.4889C2.33152 25.1203 2.6108 24.8117 2.97753 24.7751L16.6793 23.4049Z" fill="white"/>
<path d="M17.7555 23.4049V18.7418L34.4348 21.3424V33L17.7555 32.8207V28.0679L31.5384 28.7571C31.8457 28.7724 32.1033 28.5274 32.1033 28.2197V25.4889C32.1033 25.1203 31.824 24.8117 31.4573 24.7751L17.7555 23.4049Z" fill="white"/>
<path d="M17.7555 14.1685V9.50544L34.4348 13.3614V23.2255L17.7555 21.6114V18.6522L31.4854 20.7117C31.8107 20.7605 32.1033 20.5085 32.1033 20.1796V17.4541C32.1033 17.1089 31.8574 16.8126 31.5181 16.749L17.7555 14.1685Z" fill="white"/>
<path d="M17.7555 4.66304V0L34.4348 5.73913V17.2174L17.7555 14.0788V9.32609L31.4317 12.8306C31.772 12.9178 32.1033 12.6608 32.1033 12.3094V9.24183C32.1033 8.92043 31.8895 8.63825 31.5801 8.55123L17.7555 4.66304Z" fill="white"/>
</svg>
